<svg width="27" height="28" viewBox="0 0 27 28" fill="none" xmlns="http://www.w3.org/2000/svg">
<path fill-rule="evenodd" clip-rule="evenodd" d="M13.991 0.849905C13.6678 0.78343 13.3344 0.78343 13.0112 0.849905C12.6376 0.926746 12.3037 1.11379 12.0382 1.26249L11.9658 1.30291L2.96807 6.30166C2.9432 6.31548 2.91757 6.3296 2.8913 6.34407C2.61027 6.49886 2.2569 6.69349 1.98554 6.98796C1.75093 7.24255 1.57338 7.54429 1.46477 7.87302C1.33915 8.25324 1.34062 8.65665 1.34179 8.97749C1.34189 9.00748 1.342 9.03674 1.342 9.0652V18.9349C1.342 18.9633 1.34189 18.9926 1.34179 19.0226C1.34062 19.3434 1.33915 19.7469 1.46477 20.1271C1.57338 20.4558 1.75093 20.7575 1.98554 21.0121C2.2569 21.3066 2.61027 21.5012 2.8913 21.656C2.91757 21.6705 2.9432 21.6846 2.96808 21.6984L11.9658 26.6972L12.0382 26.7376C12.3037 26.8863 12.6376 27.0733 13.0112 27.1502C13.3344 27.2167 13.6678 27.2167 13.991 27.1502C14.3646 27.0733 14.6986 26.8863 14.9641 26.7376L15.0364 26.6972L24.0342 21.6984C24.0452 21.6923 24.0563 21.6861 24.0676 21.6799C24.0818 21.6721 24.0963 21.6641 24.1109 21.656C24.392 21.5012 24.7453 21.3066 25.0167 21.0121C25.2513 20.7575 25.4289 20.4558 25.5375 20.1271C25.6631 19.7469 25.6616 19.3434 25.6605 19.0226C25.6604 18.9926 25.6603 18.9633 25.6603 18.9349V9.0652C25.6603 9.03674 25.6604 9.00748 25.6605 8.9775C25.6616 8.65665 25.6631 8.25324 25.5375 7.87301C25.4289 7.54429 25.2513 7.24255 25.0167 6.98796C24.7453 6.69349 24.392 6.49885 24.1109 6.34406L24.11 6.34352C24.084 6.32924 24.0587 6.3153 24.0342 6.30166L15.0364 1.30291L14.9641 1.26248C14.6986 1.11378 14.3646 0.926746 13.991 0.849905ZM13.1468 3.42871C13.3311 3.32634 13.4251 3.27462 13.4953 3.24077L13.5011 3.23799L13.5069 3.24077C13.5771 3.27462 13.6712 3.32634 13.8554 3.42871L21.9406 7.92045L13.5011 12.6091L5.06164 7.92048L13.1468 3.42871ZM3.77383 9.98693L12.2852 14.7155L12.2852 24.0927L4.14907 19.5726C3.95459 19.4646 3.85529 19.4088 3.78562 19.3645L3.77974 19.3607L3.7793 19.3537C3.77433 19.2713 3.77383 19.1574 3.77383 18.9349V9.98693Z" fill="white"/>
</svg>
