<svg width="62" height="61" viewBox="0 0 62 61" fill="none" xmlns="http://www.w3.org/2000/svg">
<rect width="62" height="61" rx="15.8298" fill="url(#paint0_linear_2409_3869)"/>
<path fill-rule="evenodd" clip-rule="evenodd" d="M31.6378 13.4529C31.2188 13.3668 30.7867 13.3668 30.3677 13.4529C29.8834 13.5525 29.4505 13.795 29.1064 13.9878L29.0126 14.0402L17.3488 20.52C17.3166 20.5379 17.2833 20.5562 17.2493 20.575C16.885 20.7757 16.4269 21.028 16.0752 21.4097C15.771 21.7397 15.5409 22.1308 15.4001 22.557C15.2372 23.0498 15.2391 23.5728 15.2407 23.9887C15.2408 24.0276 15.2409 24.0655 15.2409 24.1024V36.8964C15.2409 36.9333 15.2408 36.9713 15.2407 37.0101C15.2391 37.426 15.2372 37.949 15.4001 38.4419C15.5409 38.868 15.771 39.2591 16.0752 39.5892C16.4269 39.9709 16.885 40.2232 17.2493 40.4238C17.2833 40.4426 17.3166 40.4609 17.3488 40.4788L29.0126 46.9587L29.1064 47.0111C29.4505 47.2038 29.8834 47.4463 30.3677 47.5459C30.7867 47.632 31.2188 47.632 31.6378 47.5459C32.1221 47.4463 32.555 47.2038 32.8992 47.0111L32.993 46.9587L44.6567 40.4788C44.671 40.4709 44.6854 40.4629 44.7001 40.4548C44.7185 40.4446 44.7372 40.4343 44.7562 40.4238C45.1205 40.2232 45.5786 39.9709 45.9304 39.5892C46.2345 39.2591 46.4647 38.868 46.6055 38.4419C46.7683 37.949 46.7664 37.426 46.7649 37.0101C46.7647 36.9712 46.7646 36.9333 46.7646 36.8964V24.1024C46.7646 24.0655 46.7647 24.0276 46.7649 23.9887C46.7664 23.5728 46.7683 23.0498 46.6055 22.557C46.4647 22.1308 46.2345 21.7397 45.9304 21.4097C45.5786 21.0279 45.1205 20.7756 44.7562 20.575L44.755 20.5743C44.7214 20.5558 44.6886 20.5377 44.6567 20.52L32.993 14.0402L32.8992 13.9878C32.555 13.795 32.1221 13.5525 31.6378 13.4529ZM30.5435 16.7958C30.7823 16.6631 30.9043 16.5961 30.9952 16.5522L31.0028 16.5486L31.0103 16.5522C31.1013 16.5961 31.2232 16.6631 31.462 16.7958L41.9428 22.6185L31.0027 28.6963L20.0627 22.6185L30.5435 16.7958ZM18.3933 25.2972L29.4265 31.4268L29.4266 43.5825L18.8797 37.7231C18.6276 37.5831 18.4989 37.5108 18.4086 37.4533L18.401 37.4484L18.4004 37.4393C18.394 37.3325 18.3933 37.1848 18.3933 36.8964V25.2972Z" fill="white"/>
<defs>
<linearGradient id="paint0_linear_2409_3869" x1="36.1944" y1="86.3894" x2="-24.7976" y2="24.3976" gradientUnits="userSpaceOnUse">
<stop stop-color="#FB432C"/>
<stop offset="1" stop-color="#FF591E"/>
</linearGradient>
</defs>
</svg>
