<svg width="296" height="144" viewBox="0 0 296 144" fill="none" xmlns="http://www.w3.org/2000/svg">
<rect width="296" height="144" rx="24" fill="#F9FAFB"/>
<g clip-path="url(#clip0_2409_3614)">
<path d="M155.995 76.3945L142.342 58.6052H138.938V82.4518H142.388V64.1771L156.43 82.4518H159.445V58.6052H155.995V76.3945ZM121.613 71.9705H133.851V68.8718H121.603V61.6945H135.414V58.5958H118.088V82.4518H135.59V79.3531H121.603L121.613 71.9705ZM107.22 68.9465C102.456 67.7891 101.124 66.8745 101.124 64.6531C101.124 62.6558 102.872 61.3025 105.481 61.3025C107.856 61.3727 110.147 62.2065 112.02 63.6825L113.87 61.0411C111.499 59.1656 108.557 58.1763 105.545 58.2412C100.865 58.2412 97.5995 61.0411 97.5995 65.0265C97.5995 69.3198 100.375 70.8038 105.425 72.0451C109.921 73.0905 111.299 74.0611 111.299 76.2358C111.299 78.4105 109.449 79.7545 106.591 79.7545C103.745 79.7413 101.007 78.6562 98.913 76.7118L96.8318 79.2225C99.5136 81.5477 102.934 82.8229 106.47 82.8158C111.539 82.8158 114.795 80.0625 114.795 75.8065C114.768 72.2038 112.659 70.2718 107.22 68.9465ZM222.022 58.6052L214.908 69.8051L207.841 58.6052H203.716L213.049 73.0251V82.4611H216.601V72.9131L225.999 58.6052H222.022ZM162.239 61.8345H169.981V82.4611H173.533V61.8345H181.275V58.6052H162.248L162.239 61.8345ZM197.703 73.1465C201.274 72.1478 203.253 69.6278 203.253 66.0251C203.253 61.4425 199.933 58.5585 194.577 58.5585H184.069V82.4425H187.584V73.8745H193.55L199.544 82.4611H203.651L197.176 73.2958L197.703 73.1465ZM187.575 70.8131V61.7598H194.207C197.666 61.7598 199.646 63.4118 199.646 66.2771C199.646 69.1425 197.528 70.8131 194.244 70.8131H187.575ZM67.8238 52.1092C67.4395 51.4657 66.8968 50.9333 66.2486 50.5638C65.6003 50.1942 64.8683 50 64.1238 50C63.3792 50 62.6472 50.1942 61.999 50.5638C61.3506 50.9333 60.808 51.4657 60.4238 52.1092L54.3373 62.6278C58.9871 64.9702 62.9488 68.4991 65.829 72.8641C68.7093 77.2291 70.4078 82.2783 70.756 87.5105H66.4825C66.1349 83.0255 64.6327 78.7099 62.1246 74.9907C59.6164 71.2714 56.1891 68.2776 52.182 66.3051L46.5488 76.1331C48.8014 77.1525 50.7639 78.7271 52.2559 80.7119C53.7478 82.6967 54.7212 85.0282 55.0865 87.4918H45.2723C45.1559 87.4835 45.0434 87.4461 44.9449 87.383C44.8464 87.3199 44.765 87.233 44.7081 87.1301C44.6512 87.0274 44.6206 86.9119 44.6189 86.7942C44.6173 86.6765 44.6447 86.5602 44.6988 86.4558L47.4183 81.7891C46.4969 81.0135 45.4439 80.4128 44.3103 80.0158L41.6185 84.6825C41.3383 85.1675 41.1564 85.7038 41.0833 86.2604C41.0103 86.8169 41.0476 87.3825 41.193 87.9244C41.3384 88.4662 41.5892 88.9736 41.9306 89.4168C42.272 89.8601 42.6973 90.2305 43.1818 90.5065C43.8201 90.8695 44.5396 91.0622 45.2723 91.0665H58.7125C58.9621 87.9586 58.4121 84.8383 57.1156 82.0077C55.8191 79.1773 53.8202 76.7326 51.3125 74.9105L53.4493 71.1771C56.6141 73.3705 59.1574 76.3585 60.8282 79.8464C62.499 83.3344 63.2396 87.2016 62.9768 91.0665H74.3635C74.6286 85.2117 73.3663 79.3892 70.7027 74.1809C68.0389 68.9725 64.0672 64.5607 59.1843 61.3865L63.504 53.9198C63.6002 53.7571 63.7563 53.6393 63.9382 53.5921C64.1201 53.5449 64.3131 53.5722 64.4753 53.6678C64.9655 53.9385 83.2435 86.1198 83.5858 86.4931C83.646 86.6023 83.6767 86.7255 83.6747 86.8503C83.6726 86.9752 83.638 87.0974 83.5741 87.2044C83.5103 87.3114 83.4196 87.3995 83.3112 87.4599C83.2027 87.5202 83.0806 87.5505 82.9568 87.5478H78.5538C78.6093 88.7363 78.6093 89.9217 78.5538 91.1038H82.9753C83.5367 91.1075 84.0933 90.9989 84.6128 90.7841C85.1324 90.5693 85.6045 90.2526 86.002 89.8525C86.3995 89.4523 86.7142 88.9766 86.9283 88.4529C87.1423 87.9291 87.2512 87.3677 87.2488 86.8011C87.2493 86.0529 87.0513 85.3182 86.6753 84.6731L67.8238 52.1092Z" fill="black"/>
</g>
<defs>
<clipPath id="clip0_2409_3614">
<rect width="185" height="42" fill="white" transform="translate(41 50)"/>
</clipPath>
</defs>
</svg>
